<svg width="30" height="30" viewBox="0 0 30 30" fill="none" xmlns="http://www.w3.org/2000/svg">
<path d="M18.3493 15.0088L8.5024 24.6985C8.16747 25.0281 8.00536 25.4126 8.01608 25.8521C8.0268 26.2915 8.20007 26.676 8.53589 27.0056C8.87171 27.3352 9.26246 27.5 9.70814 27.5C10.1538 27.5 10.5446 27.3352 10.8804 27.0056L21.1962 16.8874C21.4641 16.6238 21.6651 16.3271 21.799 15.9976C21.933 15.668 22 15.3384 22 15.0088C22 14.6792 21.933 14.3496 21.799 14.0201C21.6651 13.6905 21.4641 13.3939 21.1962 13.1302L10.8804 2.97904C10.5455 2.64946 10.1489 2.48994 9.69072 2.50049C9.23254 2.51104 8.83643 2.68154 8.5024 3.012C8.16836 3.34246 8.0009 3.72698 8 4.16554C7.99911 4.60411 8.16657 4.98862 8.5024 5.31908L18.3493 15.0088Z" fill="black"/>
</svg>
