<svg width="180" height="180" viewBox="0 0 180 180" fill="none" xmlns="http://www.w3.org/2000/svg">
<g clip-path="url(#clip0_40_90)">
<path d="M94.8245 81.6645H85.1822C83.2406 81.6645 81.6666 83.2384 81.6666 85.1801V94.8224C81.6666 96.7641 83.2406 98.338 85.1822 98.338H94.8245C96.7662 98.338 98.3402 96.7641 98.3402 94.8224V85.1801C98.3402 83.2387 96.7662 81.6645 94.8245 81.6645ZM67.6041 27.2239H57.9615C56.0198 27.2239 54.4458 28.7979 54.4458 30.7396V40.3819C54.4458 42.3236 56.0198 43.8975 57.9615 43.8975H67.6041C69.5458 43.8975 71.1197 42.3236 71.1197 40.3819V30.7396C71.1197 28.7979 69.5458 27.2239 67.6041 27.2239ZM76.4002 152.779H94.8245C96.7662 152.779 98.3402 151.205 98.3402 149.263V112.401C98.3402 110.459 96.7662 108.885 94.8245 108.885H57.9615C56.0198 108.885 54.4458 110.459 54.4458 112.401V149.263C54.4458 151.205 56.0198 152.779 57.9615 152.779H76.3932L76.4002 152.779ZM122.045 136.105H112.403C110.461 136.105 108.887 137.679 108.887 139.621V149.263C108.887 151.205 110.461 152.779 112.403 152.779H122.045C123.987 152.779 125.561 151.205 125.561 149.263V139.621C125.561 137.679 123.987 136.105 122.045 136.105ZM122.045 71.1176C123.987 71.1176 125.561 69.5436 125.561 67.602V30.7396C125.561 28.7979 123.987 27.2239 122.045 27.2239H85.1822C83.2406 27.2239 81.6666 28.7979 81.6666 30.7396V67.6023C81.6666 69.544 83.2406 71.1179 85.1822 71.1179H122.045V71.1176ZM67.6041 98.338C69.5458 98.338 71.1197 96.7641 71.1197 94.8224V57.9597C71.1197 56.018 69.5458 54.444 67.6041 54.444H30.7414C28.7997 54.444 27.2257 56.018 27.2257 57.9597V94.822C27.2257 96.7637 28.7997 98.3377 30.7414 98.3377H67.6041V98.338ZM166.844 125.558H176.483C178.425 125.558 179.999 123.984 179.999 122.043V112.401C179.999 110.459 178.425 108.885 176.483 108.885H166.844C164.903 108.885 163.329 110.459 163.329 112.401V122.043C163.329 123.984 164.903 125.558 166.844 125.558ZM30.7414 125.558H40.3837C42.3254 125.558 43.8993 123.984 43.8993 122.043V112.401C43.8993 110.459 42.3254 108.885 40.3837 108.885H30.7414C28.7997 108.885 27.2257 110.459 27.2257 112.401V122.043C27.2257 123.984 28.7997 125.558 30.7414 125.558ZM166.844 54.4444C164.903 54.4444 163.329 56.0183 163.329 57.96V94.8227C163.329 96.7644 164.903 98.3384 166.844 98.3384H176.483C178.425 98.3384 179.999 96.7644 179.999 94.8227V57.96C179.999 56.0183 178.425 54.4444 176.483 54.4444H166.844ZM136.108 40.3819C136.108 42.3236 137.682 43.8975 139.623 43.8975H176.483C178.425 43.8975 179.999 42.3236 179.999 40.3819V3.51562C179.999 1.57395 178.425 0 176.483 0H139.623C137.682 0 136.108 1.57395 136.108 3.51562V40.3819ZM149.266 125.558C151.208 125.558 152.782 123.984 152.782 122.043V85.1801C152.782 83.2384 151.208 81.6645 149.266 81.6645H112.403C110.461 81.6645 108.887 83.2384 108.887 85.1801V122.043C108.887 123.984 110.461 125.558 112.403 125.558H149.266ZM13.1601 54.4444H3.51672C1.57504 54.4444 0.00109863 56.0183 0.00109863 57.96V67.6023C0.00109863 69.544 1.57504 71.1179 3.51672 71.1179H13.1601C15.1018 71.1179 16.6757 69.544 16.6757 67.6023V57.96C16.6757 56.0183 15.1018 54.4444 13.1601 54.4444ZM149.266 54.4444H139.623C137.682 54.4444 136.108 56.0183 136.108 57.96V67.6023C136.108 69.544 137.682 71.1179 139.623 71.1179H149.266C151.208 71.1179 152.782 69.544 152.782 67.6023V57.96C152.782 56.0183 151.207 54.4444 149.266 54.4444ZM54.4462 166.841V176.484C54.4462 178.426 56.0201 180 57.9618 180H67.6045C69.5461 180 71.1201 178.426 71.1201 176.484V166.841C71.1201 164.9 69.5461 163.326 67.6045 163.326H57.9618C56.0201 163.326 54.4462 164.9 54.4462 166.841ZM179.999 139.621C179.999 137.679 178.425 136.105 176.483 136.105H139.623C137.682 136.105 136.108 137.679 136.108 139.621V176.484C136.108 178.426 137.682 180 139.623 180H176.483C178.425 180 179.999 178.426 179.999 176.484V139.621ZM81.6666 166.842V176.484C81.6666 178.426 83.2406 180 85.1822 180H122.045C123.987 180 125.561 178.426 125.561 176.484V166.842C125.561 164.9 123.987 163.326 122.045 163.326H85.1822C83.2406 163.326 81.6666 164.9 81.6666 166.842ZM0.00109863 139.622V176.484C0.00109863 178.426 1.57504 180 3.51672 180H40.3805C42.3222 180 43.8961 178.426 43.8961 176.484V139.622C43.8961 137.68 42.3222 136.106 40.3805 136.106H3.51672C1.5754 136.106 0.00109863 137.68 0.00109863 139.622ZM13.1587 81.6645H3.51672C1.57504 81.6645 0.00109863 83.2384 0.00109863 85.1801V122.043C0.00109863 123.984 1.57504 125.558 3.51672 125.558H13.1587C15.1004 125.558 16.6743 123.984 16.6743 122.043V85.1801C16.6743 83.2387 15.1004 81.6645 13.1587 81.6645ZM76.3932 16.6771H94.8245C96.7662 16.6771 98.3402 15.1031 98.3402 13.1614V3.51562C98.3402 1.57395 96.7662 0 94.8245 0H57.9618C56.0201 0 54.4462 1.57395 54.4462 3.51562V13.1614C54.4462 15.1031 56.0201 16.6771 57.9618 16.6771H76.3932ZM125.561 13.1614V3.51562C125.561 1.57395 123.987 0 122.045 0H112.403C110.461 0 108.887 1.57395 108.887 3.51562V13.1614C108.887 15.1031 110.461 16.6771 112.403 16.6771H122.045C123.987 16.6771 125.561 15.1031 125.561 13.1614ZM0.00109863 40.3819C0.00109863 42.3236 1.57504 43.8975 3.51672 43.8975H40.3805C42.3222 43.8975 43.8961 42.3236 43.8961 40.3819V3.51562C43.8961 1.57395 42.3222 0 40.3805 0H3.51672C1.57504 0 0.00109863 1.57395 0.00109863 3.51562V40.3819Z" fill="#BB0000"/>
</g>
<defs>
<clipPath id="clip0_40_90">
<rect width="180" height="180" fill="white"/>
</clipPath>
</defs>
</svg>
