<svg width="70" height="70" viewBox="0 0 70 70" fill="none" xmlns="http://www.w3.org/2000/svg">
<g clip-path="url(#clip0_40_75)">
<path d="M70.0003 58.3338C70.0003 64.7767 64.7765 70.0003 58.3338 70.0003C51.8904 70.0003 46.6672 64.7765 46.6672 58.3338C46.6672 51.8904 51.8904 46.6672 58.3338 46.6672C64.7767 46.6672 70.0003 51.8904 70.0003 58.3338ZM55.4172 30.625C55.4172 36.2631 50.8469 40.8335 45.2086 40.8335C39.5703 40.8335 35.0002 36.2631 35.0002 30.6248C35.0002 24.9872 39.5703 20.4164 45.2086 20.4164C50.8469 20.4164 55.4172 24.9874 55.4172 30.625ZM35 52.5C35 62.165 27.1648 70.0003 17.4997 70.0003C7.83535 70.0003 0 62.165 0 52.4998C0 42.8348 7.83535 35.0002 17.4997 35.0002C27.1648 35.0002 35.0002 42.8348 35.0002 52.4998L35 52.5ZM29.1676 14.5838C29.1676 22.6381 22.6381 29.1676 14.5838 29.1676C6.52952 29.1676 0 22.6381 0 14.5838C0 6.52952 6.52952 0 14.5838 0C22.6381 0 29.1676 6.52952 29.1676 14.5838ZM70.0003 8.75C70.0003 13.5825 66.0823 17.4997 61.2497 17.4997C56.4172 17.4997 52.4998 13.5825 52.4998 8.74983C52.5 3.91733 56.4172 0 61.25 0C66.0825 0 70.0005 3.91733 70.0005 8.75H70.0003ZM67.0829 37.916C67.0829 39.5269 65.7773 40.8328 64.1664 40.8328C62.5555 40.8328 61.2497 39.5271 61.2497 37.916C61.2497 36.3058 62.5555 35.0002 64.1664 35.0002C65.7773 35.0002 67.0829 36.3058 67.0829 37.916ZM45.2086 10.2084C45.2086 12.6251 43.2501 14.5838 40.8334 14.5838C38.4175 14.5838 36.4588 12.6251 36.4588 10.2084C36.4588 7.79263 38.4173 5.83396 40.8334 5.83396C43.25 5.83396 45.2086 7.79246 45.2086 10.2084Z" fill="#BB0000"/>
</g>
<defs>
<clipPath id="clip0_40_75">
<rect width="70" height="70" fill="white"/>
</clipPath>
</defs>
</svg>
