<svg width="30" height="30" viewBox="0 0 30 30" fill="none" xmlns="http://www.w3.org/2000/svg">
<path d="M28.1533 13.2427L3.10242 2.13328C2.85019 2.02081 2.56924 1.97823 2.29231 2.01047C2.01538 2.04272 1.75388 2.14847 1.53829 2.3154C1.32269 2.48234 1.16188 2.70358 1.0746 2.95334C0.987314 3.2031 0.977152 3.47109 1.0453 3.72609L3.90257 14.4994L1.0453 25.2728C0.976515 25.5279 0.986232 25.7961 1.07331 26.0462C1.16039 26.2963 1.32124 26.5178 1.53703 26.6849C1.75282 26.852 2.01463 26.9577 2.29185 26.9897C2.56906 27.0217 2.85021 26.9787 3.10242 26.8656L28.1533 15.7562C28.4065 15.644 28.6205 15.4663 28.7704 15.2438C28.9204 15.0212 29 14.763 29 14.4994C29 14.2358 28.9204 13.9777 28.7704 13.7551C28.6205 13.5326 28.4065 13.3548 28.1533 13.2427ZM4.65704 23.1051L5.89338 18.4433L14.2633 14.4994L5.89338 10.5556L4.65704 5.89381L24.0641 14.4994L4.65704 23.1051Z" fill="black"/>
</svg>
