<svg width="30" height="30" viewBox="0 0 30 30" fill="none" xmlns="http://www.w3.org/2000/svg">
<path d="M14.6338 2.86625C14.5178 2.75 14.3801 2.6578 14.2284 2.59495C14.0768 2.5321 13.9142 2.49983 13.75 2.5H7.5C7.33583 2.49983 7.17325 2.5321 7.02158 2.59495C6.86992 2.6578 6.73217 2.75 6.61625 2.86625L2.86625 6.61625C2.74995 6.73213 2.65771 6.86987 2.59486 7.02154C2.532 7.17322 2.49976 7.33582 2.5 7.5V13.75C2.5 14.0825 2.63125 14.4 2.86625 14.6338L15.3663 27.1338C15.4821 27.2502 15.6198 27.3427 15.7714 27.4057C15.9231 27.4688 16.0857 27.5013 16.25 27.5013C16.4143 27.5013 16.5769 27.4688 16.7286 27.4057C16.8802 27.3427 17.0179 27.2502 17.1338 27.1338L27.1338 17.1338C27.2499 17.0178 27.3421 16.88 27.405 16.7284C27.4679 16.5767 27.5003 16.4142 27.5003 16.25C27.5003 16.0858 27.4679 15.9233 27.405 15.7716C27.3421 15.62 27.2499 15.4822 27.1338 15.3663L14.6338 2.86625ZM16.25 24.4825L5 13.2325V8.0175L8.0175 5H13.2325L24.4825 16.25L16.25 24.4825Z" fill="black"/>
<path d="M10.4413 12.5C11.5783 12.5 12.5 11.5783 12.5 10.4413C12.5 9.30423 11.5783 8.3825 10.4413 8.3825C9.30423 8.3825 8.3825 9.30423 8.3825 10.4413C8.3825 11.5783 9.30423 12.5 10.4413 12.5Z" fill="black"/>
</svg>
