<svg width="30" height="30" viewBox="0 0 30 30" fill="none" xmlns="http://www.w3.org/2000/svg">
<path d="M15.9763 2.94573C15.5 2.35142 14.5 2.35142 14.0237 2.94573L4.02289 15.4575C3.87618 15.6416 3.78434 15.8635 3.75791 16.0976C3.73149 16.3316 3.77155 16.5684 3.8735 16.7807C3.97545 16.993 4.13516 17.1723 4.33428 17.2978C4.5334 17.4234 4.76387 17.4902 4.99922 17.4906H9.99961V26.2488C9.99961 26.5807 10.1313 26.8989 10.3658 27.1335C10.6002 27.3682 10.9182 27.5 11.2497 27.5H18.7503C19.0818 27.5 19.3998 27.3682 19.6342 27.1335C19.8687 26.8989 20.0004 26.5807 20.0004 26.2488V17.4906H25.0008C25.2361 17.4902 25.4666 17.4234 25.6657 17.2978C25.8648 17.1723 26.0245 16.993 26.1265 16.7807C26.2284 16.5684 26.2685 16.3316 26.2421 16.0976C26.2157 15.8635 26.1238 15.6416 25.9771 15.4575L15.9763 2.94573ZM18.7503 14.9883H17.5002V24.9977H12.4998V14.9883H7.60067L15 5.73084L22.3993 14.9883H18.7503Z" fill="black"/>
</svg>
