<svg width="180" height="180" viewBox="0 0 180 180" fill="none" xmlns="http://www.w3.org/2000/svg">
<g clip-path="url(#clip0_40_92)">
<path fill-rule="evenodd" clip-rule="evenodd" d="M45 90C69.8528 90 90 69.8528 90 45C90 69.8528 110.147 90 135 90C110.147 90 90 110.147 90 135C90 110.147 69.8528 90 45 90ZM45 90C20.1472 90 0 110.147 0 135C0 159.853 20.1472 180 45 180C69.8528 180 90 159.853 90 135C90 159.853 110.147 180 135 180C159.853 180 180 159.853 180 135C180 110.147 159.853 90 135 90C159.853 90 180 69.8528 180 45C180 20.1472 159.853 0 135 0C110.147 0 90 20.1472 90 45C90 20.1472 69.8528 0 45 0C20.1472 0 0 20.1472 0 45C0 69.8528 20.1472 90 45 90Z" fill="#EAD200"/>
</g>
<defs>
<clipPath id="clip0_40_92">
<rect width="180" height="180" fill="white"/>
</clipPath>
</defs>
</svg>
