<svg width="70" height="70" viewBox="0 0 70 70" fill="none" xmlns="http://www.w3.org/2000/svg">
<g clip-path="url(#clip0_40_80)">
<path fill-rule="evenodd" clip-rule="evenodd" d="M6.45029 23.1743C5.47603 18.6603 6.74303 13.7595 10.2513 10.2513C13.7595 6.74303 18.6603 5.47603 23.1743 6.45025C25.6773 2.56946 30.0386 0 35 0C39.9613 0 44.3226 2.56947 46.8258 6.45029C51.3397 5.47603 56.2404 6.74303 59.7488 10.2513C63.2569 13.7595 64.5239 18.6603 63.5499 23.1743C67.4306 25.6773 70 30.0386 70 35C70 39.9613 67.4306 44.3226 63.5499 46.8258C64.5239 51.3397 63.2569 56.2404 59.7488 59.7488C56.2404 63.2569 51.3397 64.5239 46.8258 63.5499C44.3226 67.4306 39.9613 70 35 70C30.0386 70 25.6774 67.4306 23.1743 63.5499C18.6603 64.5239 13.7595 63.2569 10.2513 59.7488C6.74303 56.2404 5.47603 51.3397 6.45029 46.8258C2.56946 44.3226 0 39.9613 0 35C0 30.0386 2.56946 25.6773 6.45029 23.1743ZM25.0094 44.9732C30.5009 50.4644 39.4044 50.4644 44.8959 44.9732C50.3874 39.4817 50.3874 30.5782 44.8959 25.0867C39.4044 19.5952 30.5009 19.5952 25.0094 25.0867C19.518 30.5782 19.518 39.4817 25.0094 44.9732Z" fill="#EAD200"/>
</g>
<defs>
<clipPath id="clip0_40_80">
<rect width="70" height="70" fill="white"/>
</clipPath>
</defs>
</svg>
